<svg xmlns="http://www.w3.org/2000/svg" width="110" height="110" viewBox="0 0 110 110"><defs><linearGradient id="atapa" x1="0" x2="110" y1="55" y2="55" gradientUnits="userSpaceOnUse"><stop offset="0" stop-color="#b4dc8c"></stop><stop offset=".5" stop-color="#32c896"></stop><stop offset="1" stop-color="#007d7d"></stop></linearGradient></defs><g><g><path fill="url(#atapa)" d="M110 109a1 1 0 1 1-2 0 1 1 0 0 1 2 0zm-12 0a1 1 0 1 1-2 0 1 1 0 0 1 2 0zm-12 0a1 1 0 1 1-2 0 1 1 0 0 1 2 0zm-12 0a1 1 0 1 1-2 0 1 1 0 0 1 2 0zm-12 0a1 1 0 1 1-2 0 1 1 0 0 1 2 0zm-12 0a1 1 0 1 1-2 0 1 1 0 0 1 2 0zm-12 0a1 1 0 1 1-2 0 1 1 0 0 1 2 0zm-12 0a1 1 0 1 1-2 0 1 1 0 0 1 2 0zm-12 0a1 1 0 1 1-2 0 1 1 0 0 1 2 0zm-12 0a1 1 0 1 1-2 0 1 1 0 0 1 2 0zm108-12a1 1 0 1 1-2 0 1 1 0 0 1 2 0zm-12 0a1 1 0 1 1-2 0 1 1 0 0 1 2 0zm-12 0a1 1 0 1 1-2 0 1 1 0 0 1 2 0zm-12 0a1 1 0 1 1-2 0 1 1 0 0 1 2 0zm-12 0a1 1 0 1 1-2 0 1 1 0 0 1 2 0zm-12 0a1 1 0 1 1-2 0 1 1 0 0 1 2 0zm-12 0a1 1 0 1 1-2 0 1 1 0 0 1 2 0zm-12 0a1 1 0 1 1-2 0 1 1 0 0 1 2 0zm-12 0a1 1 0 1 1-2 0 1 1 0 0 1 2 0zM2 97a1 1 0 1 1-2 0 1 1 0 0 1 2 0zm108-12a1 1 0 1 1-2 0 1 1 0 0 1 2 0zm-12 0a1 1 0 1 1-2 0 1 1 0 0 1 2 0zm-12 0a1 1 0 1 1-2 0 1 1 0 0 1 2 0zm-12 0a1 1 0 1 1-2 0 1 1 0 0 1 2 0zm-12 0a1 1 0 1 1-2 0 1 1 0 0 1 2 0zm-12 0a1 1 0 1 1-2 0 1 1 0 0 1 2 0zm-12 0a1 1 0 1 1-2 0 1 1 0 0 1 2 0zm-12 0a1 1 0 1 1-2 0 1 1 0 0 1 2 0zm-12 0a1 1 0 1 1-2 0 1 1 0 0 1 2 0zM2 85a1 1 0 1 1-2 0 1 1 0 0 1 2 0zm108-12a1 1 0 1 1-2 0 1 1 0 0 1 2 0zm-12 0a1 1 0 1 1-2 0 1 1 0 0 1 2 0zm-12 0a1 1 0 1 1-2 0 1 1 0 0 1 2 0zm-12 0a1 1 0 1 1-2 0 1 1 0 0 1 2 0zm-12 0a1 1 0 1 1-2 0 1 1 0 0 1 2 0zm-12 0a1 1 0 1 1-2 0 1 1 0 0 1 2 0zm-12 0a1 1 0 1 1-2 0 1 1 0 0 1 2 0zm-12 0a1 1 0 1 1-2 0 1 1 0 0 1 2 0zm-12 0a1 1 0 1 1-2 0 1 1 0 0 1 2 0zM2 73a1 1 0 1 1-2 0 1 1 0 0 1 2 0zm108-12a1 1 0 1 1-2 0 1 1 0 0 1 2 0zm-12 0a1 1 0 1 1-2 0 1 1 0 0 1 2 0zm-12 0a1 1 0 1 1-2 0 1 1 0 0 1 2 0zm-12 0a1 1 0 1 1-2 0 1 1 0 0 1 2 0zm-12 0a1 1 0 1 1-2 0 1 1 0 0 1 2 0zm-12 0a1 1 0 1 1-2 0 1 1 0 0 1 2 0zm-12 0a1 1 0 1 1-2 0 1 1 0 0 1 2 0zm-12 0a1 1 0 1 1-2 0 1 1 0 0 1 2 0zm-12 0a1 1 0 1 1-2 0 1 1 0 0 1 2 0zM2 61a1 1 0 1 1-2 0 1 1 0 0 1 2 0zm108-12a1 1 0 1 1-2 0 1 1 0 0 1 2 0zm-12 0a1 1 0 1 1-2 0 1 1 0 0 1 2 0zm-12 0a1 1 0 1 1-2 0 1 1 0 0 1 2 0zm-12 0a1 1 0 1 1-2 0 1 1 0 0 1 2 0zm-12 0a1 1 0 1 1-2 0 1 1 0 0 1 2 0zm-12 0a1 1 0 1 1-2 0 1 1 0 0 1 2 0zm-12 0a1 1 0 1 1-2 0 1 1 0 0 1 2 0zm-12 0a1 1 0 1 1-2 0 1 1 0 0 1 2 0zm-12 0a1 1 0 1 1-2 0 1 1 0 0 1 2 0zM2 49a1 1 0 1 1-2 0 1 1 0 0 1 2 0zm108-12a1 1 0 1 1-2 0 1 1 0 0 1 2 0zm-12 0a1 1 0 1 1-2 0 1 1 0 0 1 2 0zm-12 0a1 1 0 1 1-2 0 1 1 0 0 1 2 0zm-12 0a1 1 0 1 1-2 0 1 1 0 0 1 2 0zm-12 0a1 1 0 1 1-2 0 1 1 0 0 1 2 0zm-12 0a1 1 0 1 1-2 0 1 1 0 0 1 2 0zm-12 0a1 1 0 1 1-2 0 1 1 0 0 1 2 0zm-12 0a1 1 0 1 1-2 0 1 1 0 0 1 2 0zm-12 0a1 1 0 1 1-2 0 1 1 0 0 1 2 0zM2 37a1 1 0 1 1-2 0 1 1 0 0 1 2 0zm108-12a1 1 0 1 1-2 0 1 1 0 0 1 2 0zm-12 0a1 1 0 1 1-2 0 1 1 0 0 1 2 0zm-12 0a1 1 0 1 1-2 0 1 1 0 0 1 2 0zm-12 0a1 1 0 1 1-2 0 1 1 0 0 1 2 0zm-12 0a1 1 0 1 1-2 0 1 1 0 0 1 2 0zm-12 0a1 1 0 1 1-2 0 1 1 0 0 1 2 0zm-12 0a1 1 0 1 1-2 0 1 1 0 0 1 2 0zm-12 0a1 1 0 1 1-2 0 1 1 0 0 1 2 0zm-12 0a1 1 0 1 1-2 0 1 1 0 0 1 2 0zM2 25a1 1 0 1 1-2 0 1 1 0 0 1 2 0zm108-12a1 1 0 1 1-2 0 1 1 0 0 1 2 0zm-12 0a1 1 0 1 1-2 0 1 1 0 0 1 2 0zm-12 0a1 1 0 1 1-2 0 1 1 0 0 1 2 0zm-12 0a1 1 0 1 1-2 0 1 1 0 0 1 2 0zm-12 0a1 1 0 1 1-2 0 1 1 0 0 1 2 0zm-12 0a1 1 0 1 1-2 0 1 1 0 0 1 2 0zm-12 0a1 1 0 1 1-2 0 1 1 0 0 1 2 0zm-12 0a1 1 0 1 1-2 0 1 1 0 0 1 2 0zm-12 0a1 1 0 1 1-2 0 1 1 0 0 1 2 0zM2 13a1 1 0 1 1-2 0 1 1 0 0 1 2 0zM110 1a1 1 0 1 1-2 0 1 1 0 0 1 2 0zM98 1a1 1 0 1 1-2 0 1 1 0 0 1 2 0zM86 1a1 1 0 1 1-2 0 1 1 0 0 1 2 0zM74 1a1 1 0 1 1-2 0 1 1 0 0 1 2 0zM62 1a1 1 0 1 1-2 0 1 1 0 0 1 2 0zM50 1a1 1 0 1 1-2 0 1 1 0 0 1 2 0zM38 1a1 1 0 1 1-2 0 1 1 0 0 1 2 0zM26 1a1 1 0 1 1-2 0 1 1 0 0 1 2 0zM14 1a1 1 0 1 1-2 0 1 1 0 0 1 2 0zM2 1a1 1 0 1 1-2 0 1 1 0 0 1 2 0z"></path></g></g></svg>