<svg xmlns="http://www.w3.org/2000/svg" xmlns:xlink="http://www.w3.org/1999/xlink" width="533" height="385" viewBox="0 0 533 385">
<defs>
<path id="prefix__b" d="M10.924.687c-1.24 0-2.388.663-3.008 1.737L1.13 14.176c-.62 1.075-.62 2.4 0 3.474l6.786 11.753c.62 1.074 1.768 1.736 3.008 1.736h13.571c1.24 0 2.388-.662 3.008-1.736l6.786-11.753c.62-1.075.62-2.4 0-3.474L27.503 2.424C26.883 1.35 25.735.687 24.495.687h-13.57z"></path>
<path id="prefix__e" d="M10.949.297C9.708.297 8.56.959 7.94 2.033L1.155 13.786c-.62 1.075-.62 2.4 0 3.474L7.94 29.013c.621 1.074 1.768 1.737 3.009 1.737h13.57c1.241 0 2.388-.663 3.008-1.737l6.786-11.753c.62-1.075.62-2.399 0-3.474L27.527 2.033C26.907.96 25.76.297 24.52.297H10.949z"></path>
<path id="prefix__h" d="M10.832.687c-1.241 0-2.387.663-3.008 1.737L1.039 14.176c-.621 1.075-.621 2.4 0 3.474l6.785 11.753c.62 1.074 1.767 1.736 3.008 1.736h13.571c1.24 0 2.388-.662 3.008-1.736l6.785-11.753c.621-1.075.621-2.4 0-3.474L27.411 2.424C26.79 1.35 25.644.687 24.403.687h-13.57z"></path>
<path id="prefix__k" d="M10.856.297c-1.24 0-2.387.662-3.008 1.736L1.063 13.786c-.62 1.075-.62 2.4 0 3.474l6.785 11.753c.62 1.074 1.767 1.737 3.008 1.737h13.571c1.241 0 2.388-.663 3.009-1.737L34.22 17.26c.62-1.075.62-2.399 0-3.474L27.436 2.033C26.815.96 25.668.297 24.427.297h-13.57z"></path>
<path id="prefix__n" d="M10.419.687c-1.24 0-2.388.663-3.008 1.737L.625 14.176c-.62 1.075-.62 2.4 0 3.474l6.786 11.753c.62 1.074 1.767 1.736 3.008 1.736h13.57c1.242 0 2.388-.662 3.01-1.736l6.785-11.753c.62-1.075.62-2.4 0-3.474L26.998 2.424C26.378 1.35 25.231.687 23.99.687H10.419z"></path>
<path id="prefix__q" d="M10.443.297c-1.24 0-2.387.662-3.008 1.736L.65 13.786c-.62 1.075-.62 2.4 0 3.474l6.785 11.753c.62 1.074 1.767 1.737 3.008 1.737h13.571c1.24 0 2.388-.663 3.008-1.737l6.785-11.753c.621-1.075.621-2.399 0-3.474L27.022 2.033C26.402.96 25.255.297 24.014.297h-13.57z"></path>
<path id="prefix__t" d="M10.924.38c-1.24 0-2.388.663-3.008 1.737L1.13 13.87c-.62 1.075-.62 2.4 0 3.474l6.786 11.753c.62 1.074 1.768 1.737 3.008 1.737h13.571c1.24 0 2.388-.663 3.008-1.737l6.786-11.753c.62-1.075.62-2.399 0-3.474L27.503 2.117c-.62-1.074-1.768-1.736-3.008-1.736h-13.57z"></path>
<path id="prefix__w" d="M10.949.69c-1.241 0-2.388.663-3.009 1.738L1.155 14.18c-.62 1.074-.62 2.399 0 3.473L7.94 29.406c.621 1.075 1.768 1.737 3.009 1.737h13.57c1.241 0 2.388-.662 3.008-1.737l6.786-11.753c.62-1.074.62-2.399 0-3.473L27.527 2.428C26.907 1.353 25.76.69 24.52.69H10.949z"></path>
<path id="prefix__z" d="M10.832.38c-1.241 0-2.387.663-3.008 1.737L1.039 13.87c-.621 1.075-.621 2.4 0 3.474l6.785 11.753c.62 1.074 1.767 1.737 3.008 1.737h13.571c1.24 0 2.388-.663 3.008-1.737l6.785-11.753c.621-1.075.621-2.399 0-3.474L27.411 2.117C26.79 1.043 25.644.381 24.403.381h-13.57z"></path>
<path id="prefix__C" d="M10.856.69c-1.24 0-2.387.663-3.008 1.738L1.063 14.18c-.62 1.074-.62 2.399 0 3.473l6.785 11.753c.62 1.075 1.767 1.737 3.008 1.737h13.571c1.241 0 2.388-.662 3.009-1.737l6.785-11.753c.62-1.074.62-2.399 0-3.473L27.436 2.428C26.815 1.353 25.668.69 24.427.69h-13.57z"></path>
<path id="prefix__F" d="M10.419.38c-1.24 0-2.388.663-3.008 1.737L.625 13.87c-.62 1.075-.62 2.4 0 3.474l6.786 11.753c.62 1.074 1.767 1.737 3.008 1.737h13.57c1.242 0 2.388-.663 3.01-1.737l6.785-11.753c.62-1.075.62-2.399 0-3.474L26.998 2.117C26.378 1.043 25.231.381 23.99.381H10.419z"></path>
<path id="prefix__I" d="M10.443.69c-1.24 0-2.387.663-3.008 1.738L.65 14.18c-.62 1.074-.62 2.399 0 3.473l6.785 11.753c.62 1.075 1.767 1.737 3.008 1.737h13.571c1.24 0 2.388-.662 3.008-1.737l6.785-11.753c.621-1.074.621-2.399 0-3.473L27.022 2.428C26.402 1.353 25.255.69 24.014.69h-13.57z"></path>
<path id="prefix__L" d="M0 371.7L520.536 371.7 520.536 0.21 0 0.21z"></path>
<path id="prefix__N" d="M14.962.46c-1.79 0-3.442.954-4.337 2.504L.84 19.91c-.896 1.55-.896 3.46 0 5.01l9.784 16.947c.895 1.55 2.548 2.504 4.337 2.504h19.57c1.79 0 3.444-.954 4.338-2.504l9.785-16.947c.894-1.55.894-3.46 0-5.01L38.87 2.964c-.894-1.55-2.548-2.505-4.338-2.505h-19.57z"></path>
<path id="prefix__Q" d="M15.389.287c-1.79 0-3.444.955-4.339 2.505L1.266 19.74c-.894 1.55-.894 3.46 0 5.01l9.784 16.947c.895 1.55 2.549 2.504 4.339 2.504h19.569c1.79 0 3.443-.954 4.338-2.504l9.784-16.948c.895-1.55.895-3.459 0-5.009L39.296 2.792C38.4 1.242 36.748.287 34.958.287h-19.57z"></path>
<path id="prefix__T" d="M14.951.577c-1.79 0-3.443.955-4.338 2.505L.829 20.03c-.895 1.55-.895 3.46 0 5.009l9.784 16.947c.895 1.55 2.548 2.505 4.338 2.505H34.52c1.79 0 3.444-.955 4.338-2.505l9.786-16.947c.894-1.55.894-3.46 0-5.009L38.858 3.082C37.964 1.532 36.31.577 34.52.577H14.95z"></path>
<path id="prefix__W" d="M15.377.405c-1.79 0-3.443.954-4.338 2.504L1.254 19.857c-.894 1.55-.894 3.46 0 5.01l9.785 16.947c.895 1.55 2.548 2.504 4.338 2.504h19.57c1.789 0 3.442-.954 4.337-2.504l9.785-16.948c.894-1.55.894-3.46 0-5.01L39.284 2.91C38.389 1.36 36.736.405 34.946.405h-19.57z"></path>
<path id="prefix__Z" d="M15.056.1c-1.79 0-3.444.955-4.338 2.505L.933 19.552c-.895 1.55-.895 3.46 0 5.009l9.785 16.948c.894 1.55 2.548 2.503 4.338 2.503h19.569c1.79 0 3.443-.954 4.338-2.503l9.785-16.948c.895-1.55.895-3.46 0-5.01L38.963 2.606c-.895-1.55-2.548-2.506-4.338-2.506h-19.57z"></path>
<path id="prefix__ac" d="M15.482.628c-1.79 0-3.444.954-4.339 2.504L1.36 20.079c-.895 1.55-.895 3.46 0 5.01l9.784 16.947c.895 1.55 2.549 2.505 4.339 2.505h19.57c1.789 0 3.442-.956 4.337-2.505l9.784-16.947c.895-1.55.895-3.46 0-5.01L39.389 3.132c-.895-1.55-2.548-2.504-4.338-2.504h-19.57z"></path>
<linearGradient id="prefix__c" x1=".001%" x2="100%" y1="49.999%" y2="49.999%">
<stop offset="0%" stop-color="#64AFF9"></stop>
<stop offset="100%" stop-color="#74FFFB"></stop>
</linearGradient>
<linearGradient id="prefix__f" x1="0%" x2="100%" y1="49.999%" y2="49.999%">
<stop offset="0%" stop-color="#C1F6FF"></stop>
<stop offset="100%" stop-color="#F9EFFF"></stop>
</linearGradient>
<linearGradient id="prefix__i" x1="0%" x2="100%" y1="49.999%" y2="49.999%">
<stop offset="0%" stop-color="#64AFF9"></stop>
<stop offset="100%" stop-color="#74FFFB"></stop>
</linearGradient>
<linearGradient id="prefix__l" x1="0%" x2="99.999%" y1="49.999%" y2="49.999%">
<stop offset="0%" stop-color="#C1F6FF"></stop>
<stop offset="100%" stop-color="#F9EFFF"></stop>
</linearGradient>
<linearGradient id="prefix__o" x1="0%" x2="99.999%" y1="49.999%" y2="49.999%">
<stop offset="0%" stop-color="#64AFF9"></stop>
<stop offset="100%" stop-color="#74FFFB"></stop>
</linearGradient>
<linearGradient id="prefix__r" x1="0%" x2="100.001%" y1="49.999%" y2="49.999%">
<stop offset="0%" stop-color="#C1F6FF"></stop>
<stop offset="100%" stop-color="#F9EFFF"></stop>
</linearGradient>
<linearGradient id="prefix__u" x1=".001%" x2="100%" y1="49.999%" y2="49.999%">
<stop offset="0%" stop-color="#64AFF9"></stop>
<stop offset="100%" stop-color="#74FFFB"></stop>
</linearGradient>
<linearGradient id="prefix__x" x1="0%" x2="100%" y1="49.999%" y2="49.999%">
<stop offset="0%" stop-color="#C1F6FF"></stop>
<stop offset="100%" stop-color="#F9EFFF"></stop>
</linearGradient>
<linearGradient id="prefix__A" x1="0%" x2="100%" y1="49.999%" y2="49.999%">
<stop offset="0%" stop-color="#64AFF9"></stop>
<stop offset="100%" stop-color="#74FFFB"></stop>
</linearGradient>
<linearGradient id="prefix__D" x1="0%" x2="99.999%" y1="49.999%" y2="49.999%">
<stop offset="0%" stop-color="#C1F6FF"></stop>
<stop offset="100%" stop-color="#F9EFFF"></stop>
</linearGradient>
<linearGradient id="prefix__G" x1="0%" x2="99.999%" y1="49.999%" y2="49.999%">
<stop offset="0%" stop-color="#64AFF9"></stop>
<stop offset="100%" stop-color="#74FFFB"></stop>
</linearGradient>
<linearGradient id="prefix__J" x1="0%" x2="100.001%" y1="49.999%" y2="49.999%">
<stop offset="0%" stop-color="#C1F6FF"></stop>
<stop offset="100%" stop-color="#F9EFFF"></stop>
</linearGradient>
<linearGradient id="prefix__O" x1="0%" x2="100%" y1="50.001%" y2="50.001%">
<stop offset="0%" stop-color="#64AFF9"></stop>
<stop offset="100%" stop-color="#74FFFB"></stop>
</linearGradient>
<linearGradient id="prefix__R" x1="-.001%" x2="100%" y1="50.001%" y2="50.001%">
<stop offset="0%" stop-color="#C1F6FF"></stop>
<stop offset="100%" stop-color="#F9EFFF"></stop>
</linearGradient>
<linearGradient id="prefix__U" x1="0%" x2="99.999%" y1="50.001%" y2="50.001%">
<stop offset="0%" stop-color="#64AFF9"></stop>
<stop offset="100%" stop-color="#74FFFB"></stop>
</linearGradient>
<linearGradient id="prefix__X" x1="0%" x2="100.001%" y1="50%" y2="50%">
<stop offset="0%" stop-color="#C1F6FF"></stop>
<stop offset="100%" stop-color="#F9EFFF"></stop>
</linearGradient>
<linearGradient id="prefix__aa" x1="0%" x2="100%" y1="50%" y2="50%">
<stop offset="0%" stop-color="#64AFF9"></stop>
<stop offset="100%" stop-color="#74FFFB"></stop>
</linearGradient>
<linearGradient id="prefix__ad" x1="0%" x2="100%" y1="49.999%" y2="49.999%">
<stop offset="0%" stop-color="#C1F6FF"></stop>
<stop offset="100%" stop-color="#F9EFFF"></stop>
</linearGradient>
<filter id="prefix__a" width="108.1%" height="110.7%" x="-4%" y="-5.4%" filterUnits="objectBoundingBox">
<feOffset dx="2" dy="4" in="SourceAlpha" result="shadowOffsetOuter1"></feOffset>
<feGaussianBlur in="shadowOffsetOuter1" result="shadowBlurOuter1" stdDeviation="3"></feGaussianBlur>
<feColorMatrix in="shadowBlurOuter1" result="shadowMatrixOuter1" values="0 0 0 0 0 0 0 0 0 0 0 0 0 0 0 0 0 0 0.2 0"></feColorMatrix>
<feMerge>
<feMergeNode in="shadowMatrixOuter1"></feMergeNode>
<feMergeNode in="SourceGraphic"></feMergeNode>
</feMerge>
</filter>
</defs>
<g fill="none" fill-rule="evenodd" filter="url(#prefix__a)" transform="translate(4 2)">
<g>
<path fill="#FFF" d="M503.392 371.356H5.75c-3.093 0-5.6-2.508-5.6-5.6V6.154c0-3.092 2.507-5.6 5.6-5.6h497.642c3.092 0 5.6 2.508 5.6 5.6v359.602c0 3.092-2.508 5.6-5.6 5.6" transform="translate(11.2 .49)"></path>
<path stroke="#CCC" stroke-width=".689" d="M503.392 371.356H5.75c-3.093 0-5.6-2.508-5.6-5.6V6.154c0-3.092 2.507-5.6 5.6-5.6h497.642c3.092 0 5.6 2.508 5.6 5.6v359.602c0 3.092-2.508 5.6-5.6 5.6z" transform="translate(11.2 .49)"></path>
<path stroke="#DBDCDD" stroke-width=".633" d="M376.09 48.24H135.993c-1.408 0-2.56-1.152-2.56-2.56V29.892c0-1.409 1.152-2.56 2.56-2.56H376.09c1.409 0 2.56 1.151 2.56 2.56V45.68c0 1.408-1.151 2.56-2.56 2.56z" transform="translate(11.2 .49)"></path>
<path fill="#DBDCDD" d="M368.401 36.583c-.016-2.67-2.02-4.842-4.603-4.848-2.544-.005-4.608 2.12-4.614 4.833-.007 2.663 2.01 4.838 4.6 4.846 2.548.008 4.594-2.13 4.617-4.831m-.157 3.846c.042.035.082.062.114.097 1.097 1.151 2.19 2.303 3.29 3.453.173.183.25.393.178.645-.122.431-.627.57-.941.264-.029-.028-.055-.058-.083-.087-1.088-1.142-2.175-2.284-3.262-3.428-.033-.035-.057-.079-.086-.119-1.345 1.116-2.848 1.56-4.515 1.308-1.471-.224-2.69-.963-3.623-2.176-1.884-2.444-1.675-5.936.42-8.108 2.117-2.197 5.43-2.35 7.713-.384 2.368 2.04 2.883 5.846.795 8.535" transform="translate(11.2 .49)"></path>
<path fill="#DBDCDD" d="M363.91 32.944c1.457.048 2.762 1.089 3.189 2.578.095.333.144.676.148 1.025.003.34-.226.61-.533.625-.337.018-.597-.215-.616-.575-.015-.287-.042-.57-.141-.84-.328-.893-.95-1.41-1.841-1.575-.137-.025-.279-.022-.417-.046-.301-.053-.506-.322-.483-.622.026-.331.262-.564.577-.57h.117" transform="translate(11.2 .49)"></path>
<path fill="#FCFCFC" d="M160.729 219.738H18.497c-2.253 0-4.08-1.827-4.08-4.08V109.122c0-2.253 1.827-4.08 4.08-4.08H160.73c2.252 0 4.079 1.827 4.079 4.08v106.536c0 2.253-1.827 4.08-4.08 4.08" transform="translate(11.2 .49)"></path>
<path stroke="#EFEFF0" stroke-width=".7" d="M160.729 219.738H18.497c-2.253 0-4.08-1.827-4.08-4.08V109.122c0-2.253 1.827-4.08 4.08-4.08H160.73c2.252 0 4.079 1.827 4.079 4.08v106.536c0 2.253-1.827 4.08-4.08 4.08z" transform="translate(11.2 .49)"></path>
<path fill="#DBDCDD" d="M144.99 133.5H73.979c-.387 0-.7-.314-.7-.7v-6.76c0-.386.313-.7.7-.7h71.01c.387 0 .7.314.7.7v6.76c0 .386-.313.7-.7.7M154.374 164.626H24.851c-.561 0-1.02-.46-1.02-1.02v-3.06c0-.56.459-1.02 1.02-1.02h129.523c.562 0 1.02.46 1.02 1.02v3.06c0 .56-.458 1.02-1.02 1.02M129.125 178.433H24.85c-.562 0-1.02-.46-1.02-1.02v-3.06c0-.56.458-1.02 1.02-1.02h104.274c.561 0 1.02.46 1.02 1.02v3.06c0 .56-.459 1.02-1.02 1.02M33.51 203.42c0 2.61-2.116 4.725-4.726 4.725s-4.725-2.115-4.725-4.725c0-2.61 2.116-4.725 4.725-4.725 2.61 0 4.725 2.115 4.725 4.725M47.805 206.125h-10.42c-.5 0-.91-.408-.91-.909v-3.28c0-.5.41-.91.91-.91h10.42c.5 0 .91.41.91.91v3.28c0 .5-.41.91-.91.91M87.967 203.42c0 2.61-2.115 4.725-4.725 4.725-2.61 0-4.725-2.115-4.725-4.725 0-2.61 2.115-4.725 4.725-4.725 2.61 0 4.725 2.115 4.725 4.725M102.263 206.125h-10.42c-.5 0-.91-.408-.91-.909v-3.28c0-.5.41-.91.91-.91h10.42c.5 0 .909.41.909.91v3.28c0 .5-.41.91-.909.91M136.305 203.42c0 2.61-2.115 4.725-4.725 4.725-2.61 0-4.725-2.115-4.725-4.725 0-2.61 2.116-4.725 4.725-4.725 2.61 0 4.725 2.115 4.725 4.725M150.601 206.125h-10.42c-.5 0-.91-.408-.91-.909v-3.28c0-.5.41-.91.91-.91h10.42c.5 0 .909.41.909.91v3.28c0 .5-.409.91-.909.91" transform="translate(11.2 .49)"></path>
</g>
<g transform="translate(39.9 115.29)">
<mask id="prefix__d" fill="#fff">
<use xlink:href="#prefix__b"></use>
</mask>
<path fill="url(#prefix__c)" d="M10.924.687c-1.24 0-2.388.663-3.008 1.737L1.13 14.176c-.62 1.075-.62 2.4 0 3.474l6.786 11.753c.62 1.074 1.768 1.736 3.008 1.736h13.571c1.24 0 2.388-.662 3.008-1.736l6.786-11.753c.62-1.075.62-2.4 0-3.474L27.503 2.424C26.883 1.35 25.735.687 24.495.687h-13.57z" mask="url(#prefix__d)"></path>
</g>
<g transform="translate(39.2 114.59)">
<mask id="prefix__g" fill="#fff">
<use xlink:href="#prefix__e"></use>
</mask>
<path fill="url(#prefix__f)" d="M10.949.297C9.708.297 8.56.959 7.94 2.033L1.155 13.786c-.62 1.075-.62 2.4 0 3.474L7.94 29.013c.621 1.074 1.768 1.737 3.009 1.737h13.57c1.241 0 2.388-.663 3.008-1.737l6.786-11.753c.62-1.075.62-2.399 0-3.474L27.527 2.033C26.907.96 25.76.297 24.52.297H10.949z" mask="url(#prefix__g)"></path>
</g>
<g>
<path fill="#1D4371" d="M5.19 23.9c-.276-.275-.722-.275-.996 0-.275.277-.275.723 0 .997l2.533 2.533.04.04c.261.26.683.26.942 0l4.375-4.373c.26-.26.26-.681 0-.942l-.055-.054c-.261-.26-.682-.26-.942 0l-3.85 3.847-2.046-2.047z" transform="translate(49 105.49)"></path>
<path fill="#1D4371" d="M13.91 25.875c0 3.372-2.733 6.107-6.105 6.107-3.372 0-6.106-2.735-6.106-6.107v-6.458l6.106-2.152 6.106 2.152v6.458zM.29 18.36v7.515c0 4.151 3.364 7.516 7.515 7.516s7.515-3.365 7.515-7.516V18.36l-7.515-2.504L.29 18.36z" transform="translate(49 105.49)"></path>
<path fill="#FCFCFC" d="M288.037 114.738H145.805c-2.253 0-4.08-1.827-4.08-4.08V4.122c0-2.253 1.827-4.08 4.08-4.08h142.232c2.253 0 4.08 1.827 4.08 4.08v106.536c0 2.253-1.827 4.08-4.08 4.08" transform="translate(49 105.49)"></path>
<path stroke="#EFEFF0" stroke-width=".7" d="M288.037 114.738H145.805c-2.253 0-4.08-1.827-4.08-4.08V4.122c0-2.253 1.827-4.08 4.08-4.08h142.232c2.253 0 4.08 1.827 4.08 4.08v106.536c0 2.253-1.827 4.08-4.08 4.08z" transform="translate(49 105.49)"></path>
<path fill="#DBDCDD" d="M272.298 28.5h-71.011c-.387 0-.7-.314-.7-.7v-6.76c0-.386.313-.7.7-.7h71.01c.388 0 .7.314.7.7v6.76c0 .386-.312.7-.7.7M281.683 59.626H152.159c-.56 0-1.02-.46-1.02-1.02v-3.06c0-.56.46-1.02 1.02-1.02h129.524c.561 0 1.02.46 1.02 1.02v3.06c0 .56-.459 1.02-1.02 1.02M256.433 73.433H152.16c-.561 0-1.02-.46-1.02-1.02v-3.06c0-.56.459-1.02 1.02-1.02h104.274c.561 0 1.02.46 1.02 1.02v3.06c0 .56-.459 1.02-1.02 1.02M160.817 98.42c0 2.61-2.115 4.725-4.724 4.725-2.61 0-4.725-2.115-4.725-4.725 0-2.61 2.114-4.725 4.725-4.725 2.61 0 4.724 2.115 4.724 4.725M175.114 101.125h-10.421c-.5 0-.91-.408-.91-.909v-3.28c0-.5.41-.91.91-.91h10.42c.5 0 .91.41.91.91v3.28c0 .5-.41.91-.91.91M215.275 98.42c0 2.61-2.115 4.725-4.725 4.725-2.61 0-4.724-2.115-4.724-4.725 0-2.61 2.114-4.725 4.724-4.725 2.61 0 4.725 2.115 4.725 4.725M229.57 101.125h-10.42c-.5 0-.909-.408-.909-.909v-3.28c0-.5.41-.91.91-.91h10.42c.5 0 .91.41.91.91v3.28c0 .5-.41.91-.91.91M263.613 98.42c0 2.61-2.115 4.725-4.724 4.725-2.61 0-4.725-2.115-4.725-4.725 0-2.61 2.115-4.725 4.725-4.725 2.61 0 4.724 2.115 4.724 4.725M277.91 101.125h-10.421c-.5 0-.91-.408-.91-.909v-3.28c0-.5.41-.91.91-.91h10.42c.5 0 .91.41.91.91v3.28c0 .5-.41.91-.91.91" transform="translate(49 105.49)"></path>
</g>
<g transform="translate(205.1 115.29)">
<mask id="prefix__j" fill="#fff">
<use xlink:href="#prefix__h"></use>
</mask>
<path fill="url(#prefix__i)" d="M10.832.687c-1.241 0-2.387.663-3.008 1.737L1.039 14.176c-.621 1.075-.621 2.4 0 3.474l6.785 11.753c.62 1.074 1.767 1.736 3.008 1.736h13.571c1.24 0 2.388-.662 3.008-1.736l6.785-11.753c.621-1.075.621-2.4 0-3.474L27.411 2.424C26.79 1.35 25.644.687 24.403.687h-13.57z" mask="url(#prefix__j)"></path>
</g>
<g transform="translate(204.4 114.59)">
<mask id="prefix__m" fill="#fff">
<use xlink:href="#prefix__k"></use>
</mask>
<path fill="url(#prefix__l)" d="M10.856.297c-1.24 0-2.387.662-3.008 1.736L1.063 13.786c-.62 1.075-.62 2.4 0 3.474l6.785 11.753c.62 1.074 1.767 1.737 3.008 1.737h13.571c1.241 0 2.388-.663 3.009-1.737L34.22 17.26c.62-1.075.62-2.399 0-3.474L27.436 2.033C26.815.96 25.668.297 24.427.297h-13.57z" mask="url(#prefix__m)"></path>
</g>
<g>
<path stroke="#1D4371" stroke-width=".5" d="M30.211 5.553H13.215c-1.555 0-2.991.83-3.768 2.176L.949 22.448c-.777 1.346-.777 3.004 0 4.35l8.498 14.72c.777 1.346 2.213 2.175 3.768 2.175h16.996c1.555 0 2.99-.83 3.768-2.175l8.497-14.72c.778-1.346.778-3.004 0-4.35L33.98 7.728c-.778-1.345-2.213-2.175-3.768-2.175z" transform="translate(200.2 105.49)"></path>
<path fill="#FCFCFC" d="M303.024 114.738H160.792c-2.253 0-4.08-1.827-4.08-4.08V4.122c0-2.253 1.827-4.08 4.08-4.08h142.232c2.253 0 4.079 1.827 4.079 4.08v106.536c0 2.253-1.826 4.08-4.08 4.08" transform="translate(200.2 105.49)"></path>
<path stroke="#EFEFF0" stroke-width=".7" d="M303.024 114.738H160.792c-2.253 0-4.08-1.827-4.08-4.08V4.122c0-2.253 1.827-4.08 4.08-4.08h142.232c2.253 0 4.079 1.827 4.079 4.08v106.536c0 2.253-1.826 4.08-4.08 4.08z" transform="translate(200.2 105.49)"></path>
<path fill="#DBDCDD" d="M287.285 28.5h-71.011c-.387 0-.7-.314-.7-.7v-6.76c0-.386.313-.7.7-.7h71.01c.387 0 .7.314.7.7v6.76c0 .386-.313.7-.7.7M296.67 59.626H167.146c-.562 0-1.02-.46-1.02-1.02v-3.06c0-.56.458-1.02 1.02-1.02H296.67c.56 0 1.02.46 1.02 1.02v3.06c0 .56-.46 1.02-1.02 1.02M271.42 73.433H167.146c-.562 0-1.02-.46-1.02-1.02v-3.06c0-.56.458-1.02 1.02-1.02H271.42c.561 0 1.02.46 1.02 1.02v3.06c0 .56-.459 1.02-1.02 1.02M175.804 98.42c0 2.61-2.115 4.725-4.725 4.725-2.61 0-4.725-2.115-4.725-4.725 0-2.61 2.116-4.725 4.725-4.725 2.61 0 4.725 2.115 4.725 4.725M190.1 101.125h-10.42c-.5 0-.91-.408-.91-.909v-3.28c0-.5.41-.91.91-.91h10.42c.5 0 .91.41.91.91v3.28c0 .5-.41.91-.91.91M230.262 98.42c0 2.61-2.115 4.725-4.725 4.725-2.61 0-4.725-2.115-4.725-4.725 0-2.61 2.115-4.725 4.725-4.725 2.61 0 4.725 2.115 4.725 4.725M244.558 101.125h-10.421c-.5 0-.91-.408-.91-.909v-3.28c0-.5.41-.91.91-.91h10.42c.5 0 .91.41.91.91v3.28c0 .5-.41.91-.91.91M278.6 98.42c0 2.61-2.115 4.725-4.725 4.725-2.61 0-4.725-2.115-4.725-4.725 0-2.61 2.116-4.725 4.725-4.725 2.61 0 4.725 2.115 4.725 4.725M292.896 101.125h-10.42c-.5 0-.91-.408-.91-.909v-3.28c0-.5.41-.91.91-.91h10.42c.5 0 .91.41.91.91v3.28c0 .5-.41.91-.91.91" transform="translate(200.2 105.49)"></path>
</g>
<g transform="translate(371.7 115.29)">
<mask id="prefix__p" fill="#fff">
<use xlink:href="#prefix__n"></use>
</mask>
<path fill="url(#prefix__o)" d="M10.419.687c-1.24 0-2.388.663-3.008 1.737L.625 14.176c-.62 1.075-.62 2.4 0 3.474l6.786 11.753c.62 1.074 1.767 1.736 3.008 1.736h13.57c1.242 0 2.388-.662 3.01-1.736l6.785-11.753c.62-1.075.62-2.4 0-3.474L26.998 2.424C26.378 1.35 25.231.687 23.99.687H10.419z" mask="url(#prefix__p)"></path>
</g>
<g transform="translate(371 114.59)">
<mask id="prefix__s" fill="#fff">
<use xlink:href="#prefix__q"></use>
</mask>
<path fill="url(#prefix__r)" d="M10.443.297c-1.24 0-2.387.662-3.008 1.736L.65 13.786c-.62 1.075-.62 2.4 0 3.474l6.785 11.753c.62 1.074 1.767 1.737 3.008 1.737h13.571c1.24 0 2.388-.663 3.008-1.737l6.785-11.753c.621-1.075.621-2.399 0-3.474L27.022 2.033C26.402.96 25.255.297 24.014.297h-13.57z" mask="url(#prefix__s)"></path>
</g>
<g>
<path fill="#FCFCFC" d="M146.729 115.131H4.497c-2.253 0-4.08-1.826-4.08-4.08V4.516c0-2.252 1.827-4.079 4.08-4.079H146.73c2.252 0 4.079 1.827 4.079 4.08v106.536c0 2.253-1.827 4.08-4.08 4.08" transform="translate(25.2 234.99)"></path>
<path stroke="#EFEFF0" stroke-width=".7" d="M146.729 115.131H4.497c-2.253 0-4.08-1.826-4.08-4.08V4.516c0-2.252 1.827-4.079 4.08-4.079H146.73c2.252 0 4.079 1.827 4.079 4.08v106.536c0 2.253-1.827 4.08-4.08 4.08z" transform="translate(25.2 234.99)"></path>
<path fill="#DBDCDD" d="M130.99 28.893H59.979c-.387 0-.7-.314-.7-.7v-6.76c0-.386.313-.7.7-.7h71.01c.387 0 .7.314.7.7v6.76c0 .386-.313.7-.7.7M140.374 60.02H10.851c-.561 0-1.02-.46-1.02-1.02v-3.06c0-.56.459-1.02 1.02-1.02h129.523c.562 0 1.02.46 1.02 1.02V59c0 .56-.458 1.02-1.02 1.02M115.125 73.827H10.85c-.562 0-1.02-.46-1.02-1.02v-3.06c0-.56.458-1.02 1.02-1.02h104.274c.561 0 1.02.46 1.02 1.02v3.06c0 .56-.459 1.02-1.02 1.02M19.51 98.814c0 2.61-2.116 4.725-4.726 4.725s-4.725-2.116-4.725-4.725c0-2.61 2.116-4.725 4.725-4.725 2.61 0 4.725 2.115 4.725 4.725M33.805 101.52h-10.42c-.5 0-.91-.41-.91-.91v-3.281c0-.5.41-.91.91-.91h10.42c.5 0 .91.41.91.91v3.28c0 .501-.41.91-.91.91M73.967 98.814c0 2.61-2.115 4.725-4.725 4.725-2.61 0-4.725-2.116-4.725-4.725 0-2.61 2.115-4.725 4.725-4.725 2.61 0 4.725 2.115 4.725 4.725M88.263 101.52h-10.42c-.5 0-.91-.41-.91-.91v-3.281c0-.5.41-.91.91-.91h10.42c.5 0 .909.41.909.91v3.28c0 .501-.41.91-.909.91M122.305 98.814c0 2.61-2.115 4.725-4.725 4.725-2.61 0-4.725-2.116-4.725-4.725 0-2.61 2.116-4.725 4.725-4.725 2.61 0 4.725 2.115 4.725 4.725M136.601 101.52h-10.42c-.5 0-.91-.41-.91-.91v-3.281c0-.5.41-.91.91-.91h10.42c.5 0 .909.41.909.91v3.28c0 .501-.409.91-.909.91" transform="translate(25.2 234.99)"></path>
</g>
<g transform="translate(39.9 245.49)">
<mask id="prefix__v" fill="#fff">
<use xlink:href="#prefix__t"></use>
</mask>
<path fill="url(#prefix__u)" d="M10.924.38c-1.24 0-2.388.663-3.008 1.737L1.13 13.87c-.62 1.075-.62 2.4 0 3.474l6.786 11.753c.62 1.074 1.768 1.737 3.008 1.737h13.571c1.24 0 2.388-.663 3.008-1.737l6.786-11.753c.62-1.075.62-2.399 0-3.474L27.503 2.117c-.62-1.074-1.768-1.736-3.008-1.736h-13.57z" mask="url(#prefix__v)"></path>
</g>
<g transform="translate(39.2 244.09)">
<mask id="prefix__y" fill="#fff">
<use xlink:href="#prefix__w"></use>
</mask>
<path fill="url(#prefix__x)" d="M10.949.69c-1.241 0-2.388.663-3.009 1.738L1.155 14.18c-.62 1.074-.62 2.399 0 3.473L7.94 29.406c.621 1.075 1.768 1.737 3.009 1.737h13.57c1.241 0 2.388-.662 3.008-1.737l6.786-11.753c.62-1.074.62-2.399 0-3.473L27.527 2.428C26.907 1.353 25.76.69 24.52.69H10.949z" mask="url(#prefix__y)"></path>
</g>
<g>
<path stroke="#1D4371" stroke-width=".5" d="M30.303 5.947H13.307c-1.555 0-2.992.83-3.768 2.175L1.04 22.842c-.777 1.345-.777 3.004 0 4.35l8.5 14.72c.775 1.346 2.212 2.174 3.767 2.174h16.996c1.554 0 2.99-.828 3.768-2.175l8.498-14.72c.777-1.345.777-3.004 0-4.35L34.07 8.122c-.778-1.346-2.214-2.175-3.768-2.175z" transform="translate(35 234.99)"></path>
<path fill="#FCFCFC" d="M302.037 115.131H159.805c-2.253 0-4.08-1.826-4.08-4.08V4.516c0-2.252 1.827-4.079 4.08-4.079h142.232c2.253 0 4.08 1.827 4.08 4.08v106.536c0 2.253-1.827 4.08-4.08 4.08" transform="translate(35 234.99)"></path>
<path stroke="#EFEFF0" stroke-width=".7" d="M302.037 115.131H159.805c-2.253 0-4.08-1.826-4.08-4.08V4.516c0-2.252 1.827-4.079 4.08-4.079h142.232c2.253 0 4.08 1.827 4.08 4.08v106.536c0 2.253-1.827 4.08-4.08 4.08z" transform="translate(35 234.99)"></path>
<path fill="#DBDCDD" d="M286.298 28.893h-71.011c-.387 0-.7-.314-.7-.7v-6.76c0-.386.313-.7.7-.7h71.01c.388 0 .7.314.7.7v6.76c0 .386-.312.7-.7.7M295.683 60.02H166.159c-.56 0-1.02-.46-1.02-1.02v-3.06c0-.56.46-1.02 1.02-1.02h129.524c.561 0 1.02.46 1.02 1.02V59c0 .56-.459 1.02-1.02 1.02M270.433 73.827H166.16c-.561 0-1.02-.46-1.02-1.02v-3.06c0-.56.459-1.02 1.02-1.02h104.274c.561 0 1.02.46 1.02 1.02v3.06c0 .56-.459 1.02-1.02 1.02M174.817 98.814c0 2.61-2.115 4.725-4.724 4.725-2.61 0-4.725-2.116-4.725-4.725 0-2.61 2.114-4.725 4.725-4.725 2.61 0 4.724 2.115 4.724 4.725M189.114 101.52h-10.421c-.5 0-.91-.41-.91-.91v-3.281c0-.5.41-.91.91-.91h10.42c.5 0 .91.41.91.91v3.28c0 .501-.41.91-.91.91M229.275 98.814c0 2.61-2.115 4.725-4.725 4.725-2.61 0-4.724-2.116-4.724-4.725 0-2.61 2.114-4.725 4.724-4.725 2.61 0 4.725 2.115 4.725 4.725M243.57 101.52h-10.42c-.5 0-.909-.41-.909-.91v-3.281c0-.5.41-.91.91-.91h10.42c.5 0 .91.41.91.91v3.28c0 .501-.41.91-.91.91M277.613 98.814c0 2.61-2.115 4.725-4.724 4.725-2.61 0-4.725-2.116-4.725-4.725 0-2.61 2.115-4.725 4.725-4.725 2.61 0 4.724 2.115 4.724 4.725M291.91 101.52h-10.421c-.5 0-.91-.41-.91-.91v-3.281c0-.5.41-.91.91-.91h10.42c.5 0 .91.41.91.91v3.28c0 .501-.41.91-.91.91" transform="translate(35 234.99)"></path>
</g>
<g transform="translate(205.1 245.49)">
<mask id="prefix__B" fill="#fff">
<use xlink:href="#prefix__z"></use>
</mask>
<path fill="url(#prefix__A)" d="M10.832.38c-1.241 0-2.387.663-3.008 1.737L1.039 13.87c-.621 1.075-.621 2.4 0 3.474l6.785 11.753c.62 1.074 1.767 1.737 3.008 1.737h13.571c1.24 0 2.388-.663 3.008-1.737l6.785-11.753c.621-1.075.621-2.399 0-3.474L27.411 2.117C26.79 1.043 25.644.381 24.403.381h-13.57z" mask="url(#prefix__B)"></path>
</g>
<g transform="translate(204.4 244.09)">
<mask id="prefix__E" fill="#fff">
<use xlink:href="#prefix__C"></use>
</mask>
<path fill="url(#prefix__D)" d="M10.856.69c-1.24 0-2.387.663-3.008 1.738L1.063 14.18c-.62 1.074-.62 2.399 0 3.473l6.785 11.753c.62 1.075 1.767 1.737 3.008 1.737h13.571c1.241 0 2.388-.662 3.009-1.737l6.785-11.753c.62-1.074.62-2.399 0-3.473L27.436 2.428C26.815 1.353 25.668.69 24.427.69h-13.57z" mask="url(#prefix__E)"></path>
</g>
<g>
<path stroke="#1D4371" stroke-width=".5" d="M30.211 5.947H13.215c-1.555 0-2.991.83-3.768 2.175L.949 22.842c-.777 1.345-.777 3.004 0 4.35l8.498 14.72c.777 1.346 2.213 2.174 3.768 2.174h16.996c1.555 0 2.99-.828 3.768-2.175l8.497-14.72c.778-1.345.778-3.004 0-4.35L33.98 8.122c-.778-1.346-2.213-2.175-3.768-2.175z" transform="translate(200.2 234.99)"></path>
<path fill="#FCFCFC" d="M303.024 115.131H160.792c-2.253 0-4.08-1.826-4.08-4.08V4.516c0-2.252 1.827-4.079 4.08-4.079h142.232c2.253 0 4.079 1.827 4.079 4.08v106.536c0 2.253-1.826 4.08-4.08 4.08" transform="translate(200.2 234.99)"></path>
<path stroke="#EFEFF0" stroke-width=".7" d="M303.024 115.131H160.792c-2.253 0-4.08-1.826-4.08-4.08V4.516c0-2.252 1.827-4.079 4.08-4.079h142.232c2.253 0 4.079 1.827 4.079 4.08v106.536c0 2.253-1.826 4.08-4.08 4.08z" transform="translate(200.2 234.99)"></path>
<path fill="#DBDCDD" d="M287.285 28.893h-71.011c-.387 0-.7-.314-.7-.7v-6.76c0-.386.313-.7.7-.7h71.01c.387 0 .7.314.7.7v6.76c0 .386-.313.7-.7.7M296.67 60.02H167.146c-.562 0-1.02-.46-1.02-1.02v-3.06c0-.56.458-1.02 1.02-1.02H296.67c.56 0 1.02.46 1.02 1.02V59c0 .56-.46 1.02-1.02 1.02M271.42 73.827H167.146c-.562 0-1.02-.46-1.02-1.02v-3.06c0-.56.458-1.02 1.02-1.02H271.42c.561 0 1.02.46 1.02 1.02v3.06c0 .56-.459 1.02-1.02 1.02M175.804 98.814c0 2.61-2.115 4.725-4.725 4.725-2.61 0-4.725-2.116-4.725-4.725 0-2.61 2.116-4.725 4.725-4.725 2.61 0 4.725 2.115 4.725 4.725M190.1 101.52h-10.42c-.5 0-.91-.41-.91-.91v-3.281c0-.5.41-.91.91-.91h10.42c.5 0 .91.41.91.91v3.28c0 .501-.41.91-.91.91M230.262 98.814c0 2.61-2.115 4.725-4.725 4.725-2.61 0-4.725-2.116-4.725-4.725 0-2.61 2.115-4.725 4.725-4.725 2.61 0 4.725 2.115 4.725 4.725M244.558 101.52h-10.421c-.5 0-.91-.41-.91-.91v-3.281c0-.5.41-.91.91-.91h10.42c.5 0 .91.41.91.91v3.28c0 .501-.41.91-.91.91M278.6 98.814c0 2.61-2.115 4.725-4.725 4.725-2.61 0-4.725-2.116-4.725-4.725 0-2.61 2.116-4.725 4.725-4.725 2.61 0 4.725 2.115 4.725 4.725M292.896 101.52h-10.42c-.5 0-.91-.41-.91-.91v-3.281c0-.5.41-.91.91-.91h10.42c.5 0 .91.41.91.91v3.28c0 .501-.41.91-.91.91" transform="translate(200.2 234.99)"></path>
</g>
<g transform="translate(371.7 245.49)">
<mask id="prefix__H" fill="#fff">
<use xlink:href="#prefix__F"></use>
</mask>
<path fill="url(#prefix__G)" d="M10.419.38c-1.24 0-2.388.663-3.008 1.737L.625 13.87c-.62 1.075-.62 2.4 0 3.474l6.786 11.753c.62 1.074 1.767 1.737 3.008 1.737h13.57c1.242 0 2.388-.663 3.01-1.737l6.785-11.753c.62-1.075.62-2.399 0-3.474L26.998 2.117C26.378 1.043 25.231.381 23.99.381H10.419z" mask="url(#prefix__H)"></path>
</g>
<g transform="translate(371 244.09)">
<mask id="prefix__K" fill="#fff">
<use xlink:href="#prefix__I"></use>
</mask>
<path fill="url(#prefix__J)" d="M10.443.69c-1.24 0-2.387.663-3.008 1.738L.65 14.18c-.62 1.074-.62 2.399 0 3.473l6.785 11.753c.62 1.075 1.767 1.737 3.008 1.737h13.571c1.24 0 2.388-.662 3.008-1.737l6.785-11.753c.621-1.074.621-2.399 0-3.473L27.022 2.428C26.402 1.353 25.255.69 24.014.69h-13.57z" mask="url(#prefix__K)"></path>
</g>
<g transform="translate(0 .49)">
<path stroke="#1D4371" stroke-width=".5" d="M396.598 240.447h-16.997c-1.554 0-2.99.83-3.767 2.175l-8.499 14.72c-.777 1.345-.777 3.004 0 4.35l8.499 14.72c.777 1.346 2.213 2.174 3.767 2.174h16.997c1.554 0 2.99-.828 3.767-2.175l8.498-14.72c.778-1.345.778-3.004 0-4.35l-8.498-14.719c-.777-1.346-2.213-2.175-3.767-2.175z"></path>
<path fill="#DBDCDD" d="M41.852 87.931c0 4.411-3.576 7.987-7.986 7.987-4.411 0-7.987-3.576-7.987-7.987 0-4.41 3.576-7.986 7.987-7.986 4.41 0 7.986 3.576 7.986 7.986M195.134 91.431H49.804c-.46 0-.835-.375-.835-.834v-5.494c0-.46.375-.834.835-.834h145.33c.46 0 .835.375.835.834v5.494c0 .459-.376.834-.835.834"></path>
<path fill="#1D4371" d="M227.968 261.092c.326 0 .59-.268.59-.597 0-.33-.264-.597-.59-.597-.327 0-.591.268-.591.597 0 .33.264.597.59.597"></path>
<path fill="#1D4371" d="M229.937 261.954h-1.05v1.194c0 .512-.413.928-.92.928-.506 0-.918-.416-.918-.928v-1.194h-8.662v1.194c0 .512-.413.928-.919.928-.507 0-.919-.416-.919-.928v-1.194h-1.05v-2.918h14.438v2.918zm-12.633-8.09h10.762l.82 3.978H216.55l.755-3.979zm12.633 3.978h.13l-.812-4.003c-.13-.647-.765-1.17-1.418-1.17h-10.238c-.654 0-1.288.524-1.419 1.17l-.812 4.003h.131c-.654 0-1.18.534-1.18 1.194v2.918c0 .615.458 1.12 1.05 1.187v.007c0 1.172.939 2.122 2.1 2.122 1.158 0 2.098-.95 2.098-2.122h6.301c0 1.172.94 2.122 2.1 2.122 1.16 0 2.1-.95 2.1-2.122v-.007c.59-.067 1.05-.572 1.05-1.187v-2.918c0-.66-.528-1.194-1.181-1.194z"></path>
<path fill="#1D4371" d="M217.468 261.092c.326 0 .59-.268.59-.597 0-.33-.264-.597-.59-.597-.327 0-.591.268-.591.597 0 .33.264.597.59.597M383.092 131.688c.814-.814 2.035-.97 3.008-.468.232.12.448.276.642.469.193.194.35.412.47.642.504.972.347 2.194-.467 3.007-.515.514-1.192.765-1.867.753l1.558-1.557c.396-.395.396-1.032 0-1.427l-1.112-1.11c-.395-.396-1.033-.396-1.429 0l-1.558 1.556c-.012-.674.24-1.35.755-1.865zm6.291-3.744c.14.218.304.426.495.617.191.19.4.356.618.493l-2.544 2.54c-.139-.218-.303-.426-.495-.617-.19-.19-.398-.355-.617-.493l2.543-2.54zm1.21-3.744c.513-.513 1.192-.765 1.867-.753l-1.56 1.557c-.395.396-.395 1.032 0 1.427l1.113 1.111c.396.396 1.034.396 1.429 0l1.559-1.557c.01.672-.243 1.349-.756 1.864-.816.813-2.037.97-3.01.467-.23-.12-.448-.275-.64-.469-.195-.193-.35-.412-.472-.641-.502-.972-.346-2.194.47-3.006zm-6.002 8.492l1.112 1.11-2.732 2.728c1.392.898 3.269.74 4.487-.476.939-.94 1.25-2.27.93-3.465l3.1-3.097c1.2.32 2.53.012 3.47-.928 1.219-1.22 1.378-3.094.48-4.485l-2.733 2.726-1.112-1.11 2.723-2.719c-1.387-.864-3.235-.696-4.44.507-.937.939-1.25 2.27-.927 3.465l-3.1 3.099c-1.2-.32-2.531-.011-3.471.929-1.204 1.202-1.373 3.05-.509 4.434l2.722-2.718zM38.76 35.881c-.385-.228-.772-.456-1.217-.728.439-.284.825-.528 1.205-.78.38-.253.496-.606.277-.928-.219-.323-.56-.343-.947-.103-.645.412-1.288.83-1.933 1.255-.541.355-.529.852.026 1.186.65.387 1.301.774 1.953 1.154.386.228.746.168.933-.149.187-.315.085-.682-.296-.907M44.605 34.708c-.74-.509-1.497-.997-2.268-1.463-.406-.244-.876.085-.869.554.005.23.133.439.334.549.4.257.8.521 1.237.805-.47.283-.901.529-1.32.792-.287.177-.376.552-.199.84.17.272.521.367.805.217.753-.431 1.5-.87 2.241-1.334.272-.16.363-.51.204-.78-.041-.071-.097-.133-.165-.18"></path>
<path fill="#1D4371" d="M50.688 44.663l-.927.084-2.791.228c-.303.005-.597-.108-.818-.316l-1.011-.973-1.006-.94c-.12-.1-.275-.148-.432-.136-.287.021-.514.253-.527.541-.007.135.028.268.102.38l.012.02 1.76 2.094.632.685c.383.346.411.937.065 1.32-.347.382-.938.412-1.32.065l-.041-.039-.714-.599-2.668-2.274-.13-.114c-.106-.1-.247-.154-.392-.149-.144.005-.282.062-.387.161l-.123.114-2.583 2.381-.696.624c-.347.383-.938.412-1.321.065-.382-.346-.412-.937-.065-1.32.013-.014.025-.027.04-.04l.605-.709 1.681-2.158.013-.02c.077-.11.108-.246.09-.38-.03-.319-.316-.552-.635-.52-.127.013-.245.067-.338.153l-.966.98-.972 1.011c-.215.215-.504.337-.806.343l-2.797-.122-.935-.046c-.516-.004-.93-.425-.927-.941.003-.496.394-.903.89-.927l.927-.078 2.082-.258c.553-.115.945-.607.934-1.172l-.123-6.452c-.063-3.44 2.675-6.281 6.117-6.344 3.44-.063 6.282 2.675 6.345 6.116l.128 6.447c.011.564.422 1.04.979 1.134l2.087.18.928.044c.515-.01.938.4.948.914.008.515-.402.94-.916.948l.002-.005zM40.365 24.431c-7.744 0-14.022 6.278-14.022 14.021 0 7.744 6.278 14.023 14.022 14.023 7.744 0 14.022-6.279 14.022-14.023.001-7.742-6.274-14.02-14.016-14.021h-.006zM63.353 31.3c1.966 0 3.469.36 4.51 1.082 1.045.721 1.567 1.817 1.567 3.3 0 1.842-.912 3.092-2.733 3.75.251.302.528.67.844 1.101.317.431.639.903.96 1.405.322.502.644 1.018.94 1.553.297.536.572 1.05.807 1.56h-2.771c-.252-.471-.517-.948-.807-1.425-.29-.477-.58-.94-.875-1.391-.296-.451-.586-.877-.876-1.276-.29-.4-.555-.755-.806-1.07-.187.013-.342.019-.47.019h-1.577v5.142h-2.47V31.62c.635-.134 1.279-.222 1.927-.262.684-.047 1.29-.072 1.825-.072m.179 2.144c-.522 0-1.011.02-1.457.058v4.4h1.084c.532.005 1.063-.027 1.59-.096.402-.045.79-.165 1.147-.354.296-.154.538-.392.696-.685.17-.342.251-.72.239-1.102.012-.37-.07-.735-.239-1.063-.156-.288-.39-.525-.677-.685-.325-.18-.681-.302-1.05-.361-.44-.07-.887-.104-1.333-.103M94.102 31.761c.017.4-.14.79-.433 1.063-.279.26-.647.4-1.028.394-.385.008-.76-.133-1.043-.394-.294-.274-.45-.662-.428-1.063 0-.456.141-.818.431-1.083.284-.26.658-.4 1.044-.392.38-.007.748.133 1.028.392.29.265.432.625.432 1.083M74.864 34.52c.786 0 1.449.097 1.985.296.49.166.933.449 1.288.826.328.369.562.81.685 1.288.143.54.216 1.095.215 1.652v6.22c-.368.078-.922.174-1.663.284-.833.117-1.671.173-2.511.167-.567.006-1.134-.053-1.688-.173-.47-.102-.914-.296-1.308-.57-.363-.263-.653-.613-.845-1.019-.206-.418-.302-.934-.302-1.553-.015-.52.103-1.034.342-1.495.228-.4.548-.74.933-.992.419-.266.884-.452 1.37-.547.534-.113 1.078-.17 1.625-.168.275.002.55.019.825.05.31.038.617.095.92.169v-.393c.002-.265-.03-.53-.096-.786-.062-.243-.179-.468-.343-.657-.178-.198-.4-.351-.65-.444-.326-.113-.668-.165-1.012-.156-.507-.004-1.013.035-1.514.115-.382.056-.757.149-1.122.275l-.296-1.926c.434-.131.874-.235 1.321-.309.61-.111 1.23-.165 1.85-.16m.194 8.851c.559.015 1.117-.023 1.669-.113v-2.625c-.188-.05-.378-.088-.571-.114-.273-.04-.548-.06-.824-.058-.267 0-.534.02-.799.058-.253.032-.5.106-.728.219-.454.203-.74.662-.722 1.16 0 .56.175.953.528 1.165.354.213.838.317 1.444.317M90.01 39.913c.007.731-.095 1.459-.304 2.159-.182.613-.48 1.186-.876 1.687-.385.472-.873.849-1.427 1.1-.61.272-1.272.406-1.94.393-.45.005-.899-.054-1.333-.173-.347-.095-.685-.228-1.005-.394v3.995h-2.376V35.098c.485-.129 1.083-.257 1.792-.373.742-.119 1.492-.177 2.243-.174.746-.01 1.486.118 2.184.38.618.233 1.179.598 1.642 1.069.462.483.819 1.059 1.045 1.688.244.718.364 1.472.355 2.23m-2.436.034c0-1.065-.239-1.89-.715-2.474-.477-.586-1.256-.883-2.306-.883-.229 0-.457.012-.697.031-.242.02-.482.064-.715.13v5.864c.261.166.543.3.838.399.356.125.73.188 1.108.187.863 0 1.495-.297 1.894-.883.4-.587.593-1.38.593-2.371"></path>
<mask id="prefix__M" fill="#fff">
<use xlink:href="#prefix__L"></use>
</mask>
<path fill="#1D4371" d="M91.453 45.034L93.831 45.034 93.831 34.764 91.453 34.764zM114.92 44.732c-.16-.431-.316-.857-.468-1.276-.142-.419-.297-.844-.446-1.276h-4.525l-.912 2.552h-1.452c.386-1.057.748-2.034 1.082-2.932.335-.896.664-1.753.986-2.558.322-.805.645-1.58.96-2.313.317-.734.654-1.463.997-2.185h1.282c.342.722.676 1.45.998 2.185.322.735.638 1.508.961 2.313.323.806.65 1.662.986 2.558.334.896.695 1.875 1.082 2.932h-1.532zm-1.315-3.706c-.31-.836-.612-1.642-.913-2.428-.301-.787-.618-1.535-.947-2.256-.336.721-.658 1.476-.96 2.256-.303.779-.606 1.597-.903 2.428h3.723zM120.387 34.651c1.403 0 2.479.265 3.24.799.76.534 1.134 1.328 1.134 2.384.015.51-.092 1.015-.31 1.475-.202.406-.513.75-.896.992-.434.275-.917.463-1.423.555-.622.122-1.255.18-1.888.173h-1.108v3.706h-1.394v-9.842c.434-.101.876-.165 1.32-.19.478-.04.923-.052 1.329-.052m.109 1.221c-.6 0-1.05.012-1.37.045v3.921h1.05c.437.004.872-.029 1.303-.097.34-.048.668-.154.972-.315.258-.142.471-.355.613-.613.155-.307.23-.648.219-.992.01-.332-.068-.662-.23-.954-.147-.248-.355-.454-.605-.599-.276-.155-.577-.26-.889-.31-.351-.058-.707-.086-1.063-.082M126.266 44.732L127.665 44.732 127.665 34.744 126.266 34.744zM104.522 44.72c-.583.168-1.178.299-1.779.392-.743.118-1.495.177-2.248.174-.745.012-1.486-.114-2.184-.374-.62-.233-1.18-.598-1.644-1.069-.463-.483-.819-1.06-1.043-1.69-.252-.714-.374-1.47-.361-2.228-.007-.747.094-1.492.303-2.21.18-.621.485-1.2.895-1.701.39-.468.884-.84 1.442-1.083.612-.266 1.273-.395 1.94-.38.444-.007.887.051 1.314.173.338.1.667.233.98.394v-4.451h2.385v14.052zm-6.813-4.847c0 1.05.25 1.869.747 2.462.497.594 1.186.895 2.062.895.326.002.65-.016.973-.051.22-.027.44-.065.657-.114v-5.89c-.261-.167-.543-.301-.837-.4-.357-.124-.731-.187-1.108-.186-.863 0-1.496.297-1.895.883-.4.587-.599 1.39-.599 2.401z" mask="url(#prefix__M)"></path>
</g>
<g transform="translate(29.4 108.99)">
<mask id="prefix__P" fill="#fff">
<use xlink:href="#prefix__N"></use>
</mask>
<path fill="url(#prefix__O)" d="M14.962.46c-1.79 0-3.442.954-4.337 2.504L.84 19.91c-.896 1.55-.896 3.46 0 5.01l9.784 16.947c.895 1.55 2.548 2.504 4.337 2.504h19.57c1.79 0 3.444-.954 4.338-2.504l9.785-16.947c.894-1.55.894-3.46 0-5.01L38.87 2.964c-.894-1.55-2.548-2.505-4.338-2.505h-19.57z" mask="url(#prefix__P)"></path>
</g>
<g transform="translate(28 107.59)">
<mask id="prefix__S" fill="#fff">
<use xlink:href="#prefix__Q"></use>
</mask>
<path fill="url(#prefix__R)" d="M15.389.287c-1.79 0-3.444.955-4.339 2.505L1.266 19.74c-.894 1.55-.894 3.46 0 5.01l9.784 16.947c.895 1.55 2.549 2.504 4.339 2.504h19.569c1.79 0 3.443-.954 4.338-2.504l9.784-16.948c.895-1.55.895-3.459 0-5.009L39.296 2.792C38.4 1.242 36.748.287 34.958.287h-19.57z" mask="url(#prefix__S)"></path>
</g>
<g>
<path stroke="#1D4371" stroke-width=".5" d="M43.542.345h-24.51c-2.24 0-4.312 1.195-5.432 3.137L1.345 24.707c-1.12 1.941-1.12 4.333 0 6.274L13.6 52.206c1.12 1.942 3.191 3.137 5.433 3.137h24.509c2.241 0 4.312-1.195 5.433-3.137L61.23 30.981c1.121-1.941 1.121-4.333 0-6.274L48.975 3.482C47.854 1.54 45.783.345 43.542.345z" transform="translate(21.7 101.99)"></path>
<path fill="#1D4371" d="M28.095 26.623c-.402-.402-1.054-.402-1.454 0-.401.403-.401 1.054 0 1.454l3.695 3.693.06.06c.38.38.994.38 1.374 0l6.38-6.38c.38-.38.38-.993 0-1.373l-.079-.08c-.38-.38-.995-.38-1.374 0L31.08 29.61l-2.986-2.987z" transform="translate(21.7 101.99)"></path>
<path fill="#1D4371" d="M40.816 29.504c0 4.92-3.987 8.908-8.907 8.908S23 34.424 23 29.504v-9.421l8.908-3.141 8.907 3.14v9.422zm-19.87-10.963v10.963c0 6.056 4.908 10.963 10.963 10.963 6.056 0 10.964-4.907 10.964-10.963V18.541l-10.964-3.655-10.964 3.655z" transform="translate(21.7 101.99)"></path>
</g>
<g transform="translate(360.5 108.99)">
<mask id="prefix__V" fill="#fff">
<use xlink:href="#prefix__T"></use>
</mask>
<path fill="url(#prefix__U)" d="M14.951.577c-1.79 0-3.443.955-4.338 2.505L.829 20.03c-.895 1.55-.895 3.46 0 5.009l9.784 16.947c.895 1.55 2.548 2.505 4.338 2.505H34.52c1.79 0 3.444-.955 4.338-2.505l9.786-16.947c.894-1.55.894-3.46 0-5.009L38.858 3.082C37.964 1.532 36.31.577 34.52.577H14.95z" mask="url(#prefix__V)"></path>
</g>
<g transform="translate(359.1 107.59)">
<mask id="prefix__Y" fill="#fff">
<use xlink:href="#prefix__W"></use>
</mask>
<path fill="url(#prefix__X)" d="M15.377.405c-1.79 0-3.443.954-4.338 2.504L1.254 19.857c-.894 1.55-.894 3.46 0 5.01l9.785 16.947c.895 1.55 2.548 2.504 4.338 2.504h19.57c1.789 0 3.442-.954 4.337-2.504l9.785-16.948c.894-1.55.894-3.46 0-5.01L39.284 2.91C38.389 1.36 36.736.405 34.946.405h-19.57z" mask="url(#prefix__Y)"></path>
</g>
<path stroke="#1D4371" stroke-width=".5" d="M396.33 102.452h-24.509c-2.241 0-4.313 1.196-5.433 3.137l-12.255 21.226c-1.12 1.94-1.12 4.333 0 6.274l12.255 21.225c1.12 1.941 3.192 3.137 5.433 3.137h24.51c2.24 0 4.311-1.196 5.433-3.137l12.254-21.225c1.12-1.941 1.12-4.333 0-6.274l-12.254-21.226c-1.122-1.941-3.192-3.137-5.434-3.137z"></path>
<g transform="translate(194.6 239.19)">
<mask id="prefix__ab" fill="#fff">
<use xlink:href="#prefix__Z"></use>
</mask>
<path fill="url(#prefix__aa)" d="M15.056.1c-1.79 0-3.444.955-4.338 2.505L.933 19.552c-.895 1.55-.895 3.46 0 5.009l9.785 16.948c.894 1.55 2.548 2.503 4.338 2.503h19.569c1.79 0 3.443-.954 4.338-2.503l9.785-16.948c.895-1.55.895-3.46 0-5.01L38.963 2.606c-.895-1.55-2.548-2.506-4.338-2.506h-19.57z" mask="url(#prefix__ab)"></path>
</g>
<g transform="translate(193.2 237.09)">
<mask id="prefix__ae" fill="#fff">
<use xlink:href="#prefix__ac"></use>
</mask>
<path fill="url(#prefix__ad)" d="M15.482.628c-1.79 0-3.444.954-4.339 2.504L1.36 20.079c-.895 1.55-.895 3.46 0 5.01l9.784 16.947c.895 1.55 2.549 2.505 4.339 2.505h19.57c1.789 0 3.442-.956 4.337-2.505l9.784-16.947c.895-1.55.895-3.46 0-5.01L39.389 3.132c-.895-1.55-2.548-2.504-4.338-2.504h-19.57z" mask="url(#prefix__ae)"></path>
</g>
<g>
<path stroke="#1D4371" stroke-width=".5" d="M229.135 149.085h-24.51c-2.24 0-4.312 1.196-5.432 3.137l-12.255 21.225c-1.12 1.941-1.12 4.332 0 6.274l12.255 21.225c1.12 1.941 3.191 3.137 5.433 3.137h24.509c2.24 0 4.312-1.196 5.433-3.137l12.254-21.225c1.121-1.942 1.121-4.333 0-6.274l-12.254-21.225c-1.121-1.941-3.193-3.137-5.433-3.137z" transform="translate(1.4 83.09)"></path>
<path fill="#1D4371" d="M225.11 179.988c.483 0 .875-.395.875-.883 0-.487-.392-.884-.875-.884s-.874.397-.874.884c0 .488.391.883.874.883" transform="translate(1.4 83.09)"></path>
<path fill="#1D4371" d="M228.025 181.264h-1.555v1.767c0 .758-.61 1.374-1.36 1.374-.75 0-1.359-.616-1.359-1.374v-1.767H210.93v1.767c0 .758-.61 1.374-1.36 1.374-.75 0-1.36-.616-1.36-1.374v-1.767h-1.553v-4.318h21.368v4.318zm-18.697-11.973h15.928l1.214 5.888h-18.26l1.118-5.888zm18.697 5.888h.193l-1.201-5.926c-.195-.957-1.135-1.73-2.1-1.73h-15.153c-.966 0-1.906.776-2.1 1.73l-1.202 5.926h.195c-.967 0-1.749.79-1.749 1.767v4.318c0 .91.68 1.659 1.554 1.757v.01c0 1.734 1.392 3.14 3.108 3.14 1.717 0 3.108-1.406 3.108-3.14h9.324c0 1.734 1.392 3.14 3.108 3.14 1.717 0 3.108-1.406 3.108-3.14v-.01c.874-.098 1.554-.846 1.554-1.757v-4.318c0-.977-.781-1.767-1.747-1.767z" transform="translate(1.4 83.09)"></path>
<path fill="#1D4371" d="M209.57 179.988c.483 0 .875-.395.875-.883 0-.487-.392-.884-.875-.884s-.874.397-.874.884c0 .488.391.883.874.883" transform="translate(1.4 83.09)"></path>
<path class="outline-purple" stroke="#9013FE" stroke-dasharray="0 9.17" stroke-linecap="round" stroke-width="3.5" d="M71.916.249H31.672c-4.001 0-7.699 2.134-9.7 5.6L1.85 40.7c-2 3.465-2 7.734 0 11.2l20.122 34.852c2.001 3.465 5.699 5.6 9.7 5.6h40.244c4.002 0 7.698-2.135 9.7-5.6l20.122-34.852c2-3.466 2-7.735 0-11.2L81.616 5.85c-2.002-3.466-5.698-5.6-9.7-5.6z" transform="translate(1.4 83.09)"></path>
<path class="outline-orange" stroke="#F76B1C" stroke-dasharray="0 9.17" stroke-linecap="round" stroke-width="3.5" d="M237.682 129.764h-40.243c-4.002 0-7.699 2.135-9.7 5.6l-20.122 34.853c-2.001 3.465-2.001 7.735 0 11.2l20.121 34.852c2.002 3.466 5.699 5.6 9.7 5.6h40.244c4.002 0 7.699-2.134 9.7-5.6l20.123-34.852c2-3.465 2-7.735 0-11.2l-20.123-34.853c-2.001-3.465-5.698-5.6-9.7-5.6z" transform="translate(1.4 83.09)"></path>
<path class="outline-green" stroke="#76D100" stroke-dasharray="0 9.17" stroke-linecap="round" stroke-width="3.5" d="M402.344.995h-40.243c-4.002 0-7.699 2.134-9.7 5.6l-20.122 34.852c-2 3.465-2 7.735 0 11.2L352.401 87.5c2.001 3.465 5.698 5.6 9.7 5.6h40.243c4.002 0 7.7-2.135 9.7-5.6l20.122-34.853c2.001-3.465 2.001-7.735 0-11.2L412.044 6.595c-2-3.466-5.698-5.6-9.7-5.6z" transform="translate(1.4 83.09)"></path>
<path fill="#1D4371" d="M223.858 52.934c-.287 0-.52-.234-.52-.521 0-.287.233-.522.52-.522.287 0 .52.235.52.522 0 .288-.233.52-.52.52zm-5.36 0c-.286 0-.52-.234-.52-.521 0-.287.234-.522.52-.522.287 0 .522.235.522.522 0 .288-.235.52-.521.52zm-1.597-10.102l9.493.031-.93 5.207-7.457.013-1.106-5.251zm10.176 7.4h-9.819l.493-1.003 8.192-.015c.276 0 .513-.198.562-.471l1.135-6.35c.03-.166-.015-.337-.123-.468-.108-.128-.267-.204-.439-.205l-10.42-.035-.088-.42c-.056-.266-.297-.461-.572-.461h-2.546c-.32 0-.582.261-.582.582 0 .322.26.582.582.582h2.076l.389 1.85.957 4.638-1.233 2.013c-.13.176-.15.409-.05.607.1.196.299.319.52.319h1.035c-.219.29-.34.648-.34 1.018 0 .933.76 1.69 1.693 1.69s1.691-.757 1.691-1.69c0-.368-.122-.726-.34-1.018h2.656c-.219.29-.34.648-.34 1.018 0 .933.759 1.69 1.692 1.69.933 0 1.692-.757 1.692-1.69 0-.368-.123-.726-.34-1.018h1.868c.32 0 .582-.26.582-.582-.002-.32-.262-.58-.583-.58zM384.313 45.104c0-.749-.609-1.354-1.354-1.354-.749 0-1.354.605-1.354 1.354 0 .748.608 1.353 1.354 1.353.745 0 1.354-.605 1.354-1.353M378.898 45.104c0-.749-.605-1.354-1.354-1.354-.748 0-1.353.605-1.353 1.354 0 .748.608 1.353 1.353 1.353.749 0 1.354-.605 1.354-1.353M389.727 45.104c0-.749-.608-1.354-1.354-1.354-.748 0-1.353.605-1.353 1.354 0 .748.608 1.353 1.353 1.353.746 0 1.352-.605 1.354-1.353" transform="translate(1.4 83.09)"></path>
<path fill="#1D4371" d="M374.962 51.85c-1.825-1.851-2.833-4.253-2.833-6.76 0-1.347.284-2.652.842-3.882.542-1.191 1.317-2.264 2.31-3.188.993-.925 2.152-1.653 3.445-2.163 1.339-.527 2.764-.795 4.233-.795 1.469 0 2.894.268 4.236.795 1.291.51 2.45 1.236 3.445 2.163.99.924 1.767 1.994 2.308 3.188.56 1.23.842 2.535.842 3.881-.002 1.346-.285 2.651-.845 3.88-.54 1.192-1.315 2.265-2.308 3.188-.994.925-2.153 1.654-3.445 2.164-1.341.529-2.766.795-4.236.795-1.287 0-2.55-.207-3.746-.615-.24-.082-.504-.057-.723.068l-2.828 1.607-.448-3.807c-.022-.197-.11-.38-.249-.52zm4.061 4.454c1.265.389 2.587.586 3.933.586 1.694 0 3.337-.31 4.885-.918 1.5-.59 2.845-1.437 4.002-2.515 1.162-1.083 2.075-2.343 2.715-3.751.664-1.462 1-3.013 1-4.615.002-1.602-.336-3.155-.998-4.616-.637-1.406-1.55-2.669-2.714-3.752-1.157-1.078-2.503-1.924-4.002-2.515-1.548-.607-3.192-.917-4.885-.917-1.693 0-3.337.31-4.886.917-1.498.591-2.844 1.437-4.001 2.515-1.163 1.083-2.075 2.344-2.715 3.752-.662 1.461-1 3.014-1 4.614 0 2.877 1.11 5.629 3.132 7.784l.568 4.84c.035.295.214.553.48.686.125.064.263.096.398.096.15 0 .304-.04.439-.116l3.649-2.075zM389.861 173.364c.263 0 .476.214.476.476 0 .263-.213.476-.476.476-.262 0-.476-.213-.476-.476 0-.262.214-.476.476-.476m0 2.133c.914 0 1.657-.743 1.657-1.657s-.743-1.656-1.657-1.656-1.657.742-1.657 1.656c0 .914.743 1.657 1.657 1.657" transform="translate(1.4 83.09)"></path>
<path fill="#1D4371" d="M380.641 170.974l.001-.001h12.333l.002.001.001 6.003-1.937-.8c-.202-.153-.479-.162-.689-.019l-2.556 1.725-3.644-4.516c-.108-.122-.264-.194-.428-.2-.164-.005-.324.061-.438.178l-2.645 2.705v-5.076zm12.337 10.257v.002h-12.334l-.002-.002v-3.49l3.046-3.115 3.564 4.428c.198.223.529.266.775.099l2.633-1.78 2.318 1.09v2.768zm-12.337 1.185h12.337c.65 0 1.181-.532 1.181-1.181v-10.262c0-.65-.53-1.182-1.18-1.182H380.64c-.65 0-1.18.532-1.18 1.182v10.262c0 .65.53 1.18 1.18 1.18zM50.229 170.922h2.996v3.005c0 .828-.67 1.498-1.498 1.498s-1.498-.67-1.498-1.498v-3.005zm4.06 0h2.983v3.005c0 .056 0 .112.005.168-.083.749-.718 1.33-1.49 1.33-.828 0-1.498-.67-1.498-1.498v-3.005zm4.046 0h2.997v3.005c0 .828-.67 1.498-1.499 1.498-.828 0-1.498-.67-1.498-1.498v-3.005zm-6.608 5.566c.827 0 1.562-.391 2.03-1 .469.609 1.204 1 2.03 1 .823 0 1.555-.386 2.023-.99.469.604 1.2.99 2.023.99 1.415 0 2.562-1.147 2.562-2.561v-3.005c0-.588-.476-1.064-1.063-1.064H50.229c-.588 0-1.064.476-1.064 1.064v3.005c0 1.414 1.148 2.561 2.562 2.561zM60.919 177.832c-.294 0-.532.238-.532.532v3.662h-9.214v-3.662c0-.294-.238-.532-.532-.532-.293 0-.53.238-.53.532v3.662c0 .587.475 1.063 1.062 1.063h9.214c.588 0 1.064-.476 1.064-1.063v-3.662c0-.294-.238-.532-.532-.532" transform="translate(1.4 83.09)"></path>
</g>
</g>
</svg>